M48
; DRILL file {KiCad 9.0.3} date 2025-12-02T00:44:16+1100
; FORMAT={-:-/ absolute / metric / decimal}
; #@! TF.CreationDate,2025-12-02T00:44:16+11:00
; #@! TF.GenerationSoftware,Kicad,Pcbnew,9.0.3
; #@! TF.FileFunction,Plated,1,2,PTH
FMAT,2
METRIC
; #@! TA.AperFunction,Plated,PTH,ViaDrill
T1C0.300
; #@! TA.AperFunction,Plated,PTH,ComponentDrill
T2C0.740
; #@! TA.AperFunction,Plated,PTH,ComponentDrill
T3C1.000
; #@! TA.AperFunction,Plated,PTH,ComponentDrill
T4C1.100
; #@! TA.AperFunction,Plated,PTH,ComponentDrill
T5C1.210
; #@! TA.AperFunction,Plated,PTH,ComponentDrill
T6C1.450
%
G90
G05
T1
X166.381Y-84.158
X167.772Y-74.5
X172.323Y-91.575
X175.714Y-69.154
X175.784Y-81.069
X177.047Y-82.5
X177.083Y-70.261
X178.832Y-86.606
X179.067Y-80.332
X181.742Y-90.99
X184.41Y-71.302
X184.87Y-91.037
X185.8Y-91.067
X185.91Y-85.329
X186.247Y-92.51
X186.964Y-81.805
X188.004Y-95.877
X188.359Y-89.365
X188.63Y-77.83
X191.753Y-85.74
T2
X190.895Y-97.0
X190.895Y-104.94
X193.435Y-97.0
X193.435Y-104.94
X195.975Y-97.0
X195.975Y-104.94
X198.515Y-97.0
X198.515Y-104.94
T4
X163.9Y-95.8
X164.5Y-83.1
X164.5Y-86.5
X165.6Y-99.5
X167.3Y-95.8
X168.2Y-81.4
X168.2Y-84.8
X168.2Y-88.2
X169.0Y-99.5
X170.7Y-95.8
T5
X180.96Y-102.5
X183.5Y-102.5
T6
X139.43Y-88.93
X146.43Y-81.93
X150.5Y-93.0
X203.0Y-80.0
X207.07Y-91.07
X214.07Y-84.07
T3
G00X161.75Y-70.4
M15
G01X161.75Y-72.6
M16
G05
G00X166.25Y-76.3
M15
G01X164.05Y-76.3
M16
G05
G00X168.05Y-70.2
M15
G01X168.05Y-72.8
M16
G05
M30
