%TF.GenerationSoftware,KiCad,Pcbnew,9.0.3*%
%TF.CreationDate,2025-12-02T00:44:42+11:00*%
%TF.ProjectId,guitar_amp,67756974-6172-45f6-916d-702e6b696361,rev?*%
%TF.SameCoordinates,Original*%
%TF.FileFunction,Soldermask,Top*%
%TF.FilePolarity,Negative*%
%FSLAX46Y46*%
G04 Gerber Fmt 4.6, Leading zero omitted, Abs format (unit mm)*
G04 Created by KiCad (PCBNEW 9.0.3) date 2025-12-02 00:44:42*
%MOMM*%
%LPD*%
G01*
G04 APERTURE LIST*
G04 Aperture macros list*
%AMRoundRect*
0 Rectangle with rounded corners*
0 $1 Rounding radius*
0 $2 $3 $4 $5 $6 $7 $8 $9 X,Y pos of 4 corners*
0 Add a 4 corners polygon primitive as box body*
4,1,4,$2,$3,$4,$5,$6,$7,$8,$9,$2,$3,0*
0 Add four circle primitives for the rounded corners*
1,1,$1+$1,$2,$3*
1,1,$1+$1,$4,$5*
1,1,$1+$1,$6,$7*
1,1,$1+$1,$8,$9*
0 Add four rect primitives between the rounded corners*
20,1,$1+$1,$2,$3,$4,$5,0*
20,1,$1+$1,$4,$5,$6,$7,0*
20,1,$1+$1,$6,$7,$8,$9,0*
20,1,$1+$1,$8,$9,$2,$3,0*%
G04 Aperture macros list end*
%ADD10RoundRect,0.140000X-0.140000X-0.170000X0.140000X-0.170000X0.140000X0.170000X-0.140000X0.170000X0*%
%ADD11RoundRect,0.140000X0.140000X0.170000X-0.140000X0.170000X-0.140000X-0.170000X0.140000X-0.170000X0*%
%ADD12RoundRect,0.102000X-0.624000X0.624000X-0.624000X-0.624000X0.624000X-0.624000X0.624000X0.624000X0*%
%ADD13C,1.452000*%
%ADD14RoundRect,0.140000X-0.170000X0.140000X-0.170000X-0.140000X0.170000X-0.140000X0.170000X0.140000X0*%
%ADD15O,2.404000X4.604000*%
%ADD16O,2.204000X4.204000*%
%ADD17O,4.204000X2.204000*%
%ADD18RoundRect,0.102000X-0.600000X-0.600000X0.600000X-0.600000X0.600000X0.600000X-0.600000X0.600000X0*%
%ADD19RoundRect,0.102000X-0.750000X-0.800000X0.750000X-0.800000X0.750000X0.800000X-0.750000X0.800000X0*%
%ADD20R,1.800000X1.800000*%
%ADD21C,1.800000*%
%ADD22RoundRect,0.102000X-0.907500X-0.907500X0.907500X-0.907500X0.907500X0.907500X-0.907500X0.907500X0*%
%ADD23C,2.019000*%
%ADD24C,2.379000*%
%ADD25RoundRect,0.150000X0.150000X0.200000X-0.150000X0.200000X-0.150000X-0.200000X0.150000X-0.200000X0*%
%ADD26RoundRect,0.140000X0.170000X-0.140000X0.170000X0.140000X-0.170000X0.140000X-0.170000X-0.140000X0*%
G04 APERTURE END LIST*
D10*
%TO.C,C10*%
X194040000Y-91000000D03*
X195000000Y-91000000D03*
%TD*%
%TO.C,6.7k7*%
X174540000Y-96000000D03*
X175500000Y-96000000D03*
%TD*%
D11*
%TO.C,C5*%
X159000000Y-92500000D03*
X158040000Y-92500000D03*
%TD*%
D10*
%TO.C,R6*%
X190540000Y-91000000D03*
X191500000Y-91000000D03*
%TD*%
%TO.C,C7*%
X178040000Y-97000000D03*
X179000000Y-97000000D03*
%TD*%
%TO.C,6.7k2*%
X173540000Y-84000000D03*
X174500000Y-84000000D03*
%TD*%
D12*
%TO.C,U2*%
X198515000Y-97000000D03*
D13*
X195975000Y-97000000D03*
X193435000Y-97000000D03*
X190895000Y-97000000D03*
X190895000Y-104940000D03*
X193435000Y-104940000D03*
X195975000Y-104940000D03*
X198515000Y-104940000D03*
%TD*%
D10*
%TO.C,C11*%
X190540000Y-87000000D03*
X191500000Y-87000000D03*
%TD*%
D14*
%TO.C,R3*%
X191500000Y-82540000D03*
X191500000Y-83500000D03*
%TD*%
D10*
%TO.C,C9*%
X187040000Y-87000000D03*
X188000000Y-87000000D03*
%TD*%
D11*
%TO.C,R4*%
X187500000Y-67000000D03*
X186540000Y-67000000D03*
%TD*%
D15*
%TO.C,J3*%
X168050000Y-71500000D03*
D16*
X161750000Y-71500000D03*
D17*
X165150000Y-76300000D03*
%TD*%
D10*
%TO.C,6.7k4*%
X174540000Y-92000000D03*
X175500000Y-92000000D03*
%TD*%
D14*
%TO.C,C2*%
X181000000Y-83540000D03*
X181000000Y-84500000D03*
%TD*%
D10*
%TO.C,C1*%
X185540000Y-71500000D03*
X186500000Y-71500000D03*
%TD*%
D14*
%TO.C,R2*%
X186000000Y-96040000D03*
X186000000Y-97000000D03*
%TD*%
D10*
%TO.C,6.7k3*%
X174540000Y-88000000D03*
X175500000Y-88000000D03*
%TD*%
D18*
%TO.C,RV3*%
X177165700Y-77430000D03*
D19*
X180415700Y-78430000D03*
D18*
X177165700Y-79430000D03*
%TD*%
D10*
%TO.C,R1*%
X184040000Y-85500000D03*
X185000000Y-85500000D03*
%TD*%
D20*
%TO.C,U4*%
X170700000Y-95800000D03*
D21*
X169000000Y-99500000D03*
X167300000Y-95800000D03*
X165600000Y-99500000D03*
X163900000Y-95800000D03*
%TD*%
D10*
%TO.C,C3*%
X180540000Y-87000000D03*
X181500000Y-87000000D03*
%TD*%
D11*
%TO.C,C12*%
X187960000Y-91000000D03*
X187000000Y-91000000D03*
%TD*%
D22*
%TO.C,D3*%
X180960000Y-102500000D03*
D23*
X183500000Y-102500000D03*
%TD*%
D11*
%TO.C,6.7k6*%
X171460000Y-91500000D03*
X170500000Y-91500000D03*
%TD*%
D20*
%TO.C,U1*%
X168200000Y-88200000D03*
D21*
X164500000Y-86500000D03*
X168200000Y-84800000D03*
X164500000Y-83100000D03*
X168200000Y-81400000D03*
%TD*%
D11*
%TO.C,C4*%
X183960000Y-91000000D03*
X183000000Y-91000000D03*
%TD*%
D24*
%TO.C,J1*%
X146430000Y-81930000D03*
X150500000Y-93000000D03*
X139430000Y-88930000D03*
%TD*%
D25*
%TO.C,D2*%
X172600000Y-78000000D03*
X174000000Y-78000000D03*
%TD*%
D10*
%TO.C,6.7k5*%
X179040000Y-92000000D03*
X180000000Y-92000000D03*
%TD*%
D14*
%TO.C,C6*%
X182000000Y-96040000D03*
X182000000Y-97000000D03*
%TD*%
%TO.C,6.7k1*%
X172500000Y-72040000D03*
X172500000Y-73000000D03*
%TD*%
D25*
%TO.C,D1*%
X185600000Y-77000000D03*
X187000000Y-77000000D03*
%TD*%
D18*
%TO.C,RV1*%
X177165700Y-67130000D03*
D19*
X180415700Y-68130000D03*
D18*
X177165700Y-69130000D03*
%TD*%
D24*
%TO.C,J2*%
X207070000Y-91070000D03*
X203000000Y-80000000D03*
X214070000Y-84070000D03*
%TD*%
D26*
%TO.C,R5*%
X187500000Y-83460000D03*
X187500000Y-82500000D03*
%TD*%
D18*
%TO.C,RV2*%
X177165700Y-72280000D03*
D19*
X180415700Y-73280000D03*
D18*
X177165700Y-74280000D03*
%TD*%
M02*
