%TF.GenerationSoftware,KiCad,Pcbnew,9.0.3*%
%TF.CreationDate,2025-12-02T00:44:41+11:00*%
%TF.ProjectId,guitar_amp,67756974-6172-45f6-916d-702e6b696361,rev?*%
%TF.SameCoordinates,Original*%
%TF.FileFunction,Copper,L2,Bot*%
%TF.FilePolarity,Positive*%
%FSLAX46Y46*%
G04 Gerber Fmt 4.6, Leading zero omitted, Abs format (unit mm)*
G04 Created by KiCad (PCBNEW 9.0.3) date 2025-12-02 00:44:41*
%MOMM*%
%LPD*%
G01*
G04 APERTURE LIST*
%TA.AperFunction,ComponentPad*%
%ADD10R,1.248000X1.248000*%
%TD*%
%TA.AperFunction,ComponentPad*%
%ADD11C,1.248000*%
%TD*%
%TA.AperFunction,ComponentPad*%
%ADD12O,2.200000X4.400000*%
%TD*%
%TA.AperFunction,ComponentPad*%
%ADD13O,2.000000X4.000000*%
%TD*%
%TA.AperFunction,ComponentPad*%
%ADD14O,4.000000X2.000000*%
%TD*%
%TA.AperFunction,ComponentPad*%
%ADD15R,1.800000X1.800000*%
%TD*%
%TA.AperFunction,ComponentPad*%
%ADD16C,1.800000*%
%TD*%
%TA.AperFunction,ComponentPad*%
%ADD17R,1.815000X1.815000*%
%TD*%
%TA.AperFunction,ComponentPad*%
%ADD18C,1.815000*%
%TD*%
%TA.AperFunction,ComponentPad*%
%ADD19C,2.175000*%
%TD*%
%TA.AperFunction,ViaPad*%
%ADD20C,0.600000*%
%TD*%
%TA.AperFunction,Conductor*%
%ADD21C,0.200000*%
%TD*%
G04 APERTURE END LIST*
D10*
%TO.P,U2,1*%
%TO.N,Net-(D1-A)*%
X198515000Y-97000000D03*
D11*
%TO.P,U2,2,-*%
%TO.N,Net-(D1-K)*%
X195975000Y-97000000D03*
%TO.P,U2,3,+*%
X193435000Y-97000000D03*
%TO.P,U2,4*%
%TO.N,N/C*%
X190895000Y-97000000D03*
%TO.P,U2,5*%
X190895000Y-104940000D03*
%TO.P,U2,6*%
X193435000Y-104940000D03*
%TO.P,U2,7*%
X195975000Y-104940000D03*
%TO.P,U2,8*%
X198515000Y-104940000D03*
%TD*%
D12*
%TO.P,J3,1*%
%TO.N,VDD*%
X168050000Y-71500000D03*
D13*
%TO.P,J3,2*%
%TO.N,GND*%
X161750000Y-71500000D03*
D14*
%TO.P,J3,3*%
X165150000Y-76300000D03*
%TD*%
D15*
%TO.P,U4,1,+*%
%TO.N,Net-(U4-+)*%
X170700000Y-95800000D03*
D16*
%TO.P,U4,2,-*%
%TO.N,Net-(U4--)*%
X169000000Y-99500000D03*
%TO.P,U4,3,V-*%
%TO.N,GND*%
X167300000Y-95800000D03*
%TO.P,U4,4*%
%TO.N,Net-(6.7k6-Pad2)*%
X165600000Y-99500000D03*
%TO.P,U4,5,V+*%
%TO.N,VDD*%
X163900000Y-95800000D03*
%TD*%
D17*
%TO.P,D3,1,K*%
%TO.N,GND*%
X180960000Y-102500000D03*
D18*
%TO.P,D3,2,A*%
%TO.N,Net-(D3-A)*%
X183500000Y-102500000D03*
%TD*%
D15*
%TO.P,U1,1,+*%
%TO.N,Net-(D1-K)*%
X168200000Y-88200000D03*
D16*
%TO.P,U1,2,-*%
%TO.N,Net-(U1--)*%
X164500000Y-86500000D03*
%TO.P,U1,3,-Vs*%
%TO.N,GND*%
X168200000Y-84800000D03*
%TO.P,U1,4*%
%TO.N,Net-(C3-Pad2)*%
X164500000Y-83100000D03*
%TO.P,U1,5,+Vs*%
%TO.N,VDD*%
X168200000Y-81400000D03*
%TD*%
D19*
%TO.P,J1,R*%
%TO.N,Net-(C1-Pad1)*%
X146430000Y-81930000D03*
%TO.P,J1,S*%
%TO.N,GND*%
X150500000Y-93000000D03*
%TO.P,J1,T*%
%TO.N,Net-(C1-Pad1)*%
X139430000Y-88930000D03*
%TD*%
%TO.P,J2,R*%
%TO.N,Net-(C10-Pad2)*%
X207070000Y-91070000D03*
%TO.P,J2,S*%
%TO.N,GND*%
X203000000Y-80000000D03*
%TO.P,J2,T*%
%TO.N,Net-(C10-Pad2)*%
X214070000Y-84070000D03*
%TD*%
D20*
%TO.N,Net-(D1-K)*%
X175783800Y-81068500D03*
X191752900Y-85740500D03*
%TO.N,VDD*%
X186963800Y-81805400D03*
X166381200Y-84158400D03*
X188003800Y-95876900D03*
X188359200Y-89365400D03*
%TO.N,GND*%
X185800100Y-91066900D03*
%TO.N,Net-(U4-+)*%
X172323500Y-91575000D03*
%TO.N,Net-(C1-Pad1)*%
X185910300Y-85329100D03*
X184409800Y-71301600D03*
%TO.N,Net-(C3-Pad1)*%
X177082900Y-70261400D03*
X178831700Y-86606400D03*
%TO.N,Net-(C3-Pad2)*%
X175714100Y-69153800D03*
X177047500Y-82500000D03*
%TO.N,Net-(C4-Pad2)*%
X181742100Y-90989600D03*
X179067500Y-80331700D03*
%TO.N,Net-(D1-A)*%
X188629800Y-77830000D03*
X184870000Y-91037000D03*
%TO.N,Net-(D3-A)*%
X186247000Y-92509500D03*
%TO.N,Net-(U1--)*%
X167772200Y-74500000D03*
%TD*%
D21*
%TO.N,Net-(D1-K)*%
X169401700Y-88200000D02*
X169401700Y-87450600D01*
X193435000Y-87422600D02*
X193435000Y-97000000D01*
X168200000Y-88200000D02*
X169401700Y-88200000D01*
X169401700Y-87450600D02*
X175783800Y-81068500D01*
X191752900Y-85740500D02*
X193435000Y-87422600D01*
%TO.N,VDD*%
X168200000Y-81400000D02*
X168373900Y-81226100D01*
X163900000Y-95800000D02*
X166381200Y-93318800D01*
X188359200Y-89365400D02*
X188359200Y-95521500D01*
X186963800Y-81805400D02*
X186963800Y-87970000D01*
X188359200Y-95521500D02*
X188003800Y-95876900D01*
X168373900Y-81226100D02*
X168373900Y-71823900D01*
X166381200Y-84158400D02*
X166381200Y-83218800D01*
X166381200Y-93318800D02*
X166381200Y-84158400D01*
X186963800Y-87970000D02*
X188359200Y-89365400D01*
X166381200Y-83218800D02*
X168200000Y-81400000D01*
X168373900Y-71823900D02*
X168050000Y-71500000D01*
%TO.N,GND*%
X165150000Y-77601700D02*
X162698300Y-80053400D01*
X165419300Y-97064700D02*
X166992000Y-95492000D01*
X163420400Y-97064700D02*
X165419300Y-97064700D01*
X180960000Y-95907000D02*
X185800100Y-91066900D01*
X166992000Y-95492000D02*
X166992000Y-86008000D01*
X162698300Y-96342600D02*
X163420400Y-97064700D01*
X167300000Y-95800000D02*
X166992000Y-95492000D01*
X166992000Y-86008000D02*
X168200000Y-84800000D01*
X165150000Y-76300000D02*
X165150000Y-77601700D01*
X165150000Y-75649100D02*
X165150000Y-76300000D01*
X165150000Y-75649100D02*
X165150000Y-74998300D01*
X162698300Y-80053400D02*
X162698300Y-96342600D01*
X180960000Y-102500000D02*
X180960000Y-95907000D01*
X163051700Y-72900000D02*
X163051700Y-71500000D01*
X165150000Y-74998300D02*
X163051700Y-72900000D01*
X161750000Y-71500000D02*
X163051700Y-71500000D01*
%TO.N,Net-(U4-+)*%
X172323500Y-92974800D02*
X172323500Y-91575000D01*
X170700000Y-94598300D02*
X172323500Y-92974800D01*
X170700000Y-95800000D02*
X170700000Y-94598300D01*
%TO.N,Net-(C1-Pad1)*%
X184409800Y-71301600D02*
X185910300Y-72802100D01*
X139430000Y-88930000D02*
X146430000Y-81930000D01*
X185910300Y-72802100D02*
X185910300Y-85329100D01*
%TO.N,Net-(C3-Pad1)*%
X177816000Y-85590700D02*
X178831700Y-86606400D01*
X177082900Y-70261400D02*
X177816000Y-70994500D01*
X177816000Y-70994500D02*
X177816000Y-85590700D01*
%TO.N,Net-(C3-Pad2)*%
X177047500Y-77190400D02*
X175714100Y-75857000D01*
X175714100Y-75857000D02*
X175714100Y-69153800D01*
X177047500Y-82500000D02*
X177047500Y-77190400D01*
%TO.N,Net-(C4-Pad2)*%
X179067500Y-80331700D02*
X181742100Y-83006300D01*
X181742100Y-83006300D02*
X181742100Y-90989600D01*
%TO.N,Net-(D1-A)*%
X186529900Y-89377100D02*
X184870000Y-91037000D01*
X186529900Y-85056400D02*
X186529900Y-89377100D01*
X186336300Y-84862800D02*
X186529900Y-85056400D01*
X198515000Y-97000000D02*
X198515000Y-87715200D01*
X188629800Y-77830000D02*
X186336300Y-80123500D01*
X198515000Y-87715200D02*
X188629800Y-77830000D01*
X186336300Y-80123500D02*
X186336300Y-84862800D01*
%TO.N,Net-(C10-Pad2)*%
X214070000Y-84070000D02*
X207070000Y-91070000D01*
%TO.N,Net-(D3-A)*%
X186247000Y-99753000D02*
X183500000Y-102500000D01*
X186247000Y-92509500D02*
X186247000Y-99753000D01*
%TO.N,Net-(U1--)*%
X165701700Y-85298300D02*
X164500000Y-86500000D01*
X165701700Y-82012800D02*
X165701700Y-85298300D01*
X167772200Y-74500000D02*
X167772200Y-79942300D01*
X167772200Y-79942300D02*
X165701700Y-82012800D01*
%TD*%
M02*
